<?xml version="1.0" standalone="no"?>
<!DOCTYPE svg PUBLIC "-//W3C//DTD SVG 20010904//EN"
 "http://www.w3.org/TR/2001/REC-SVG-20010904/DTD/svg10.dtd">
<svg version="1.0" xmlns="http://www.w3.org/2000/svg"
 width="2400.000000pt" height="2400.000000pt" viewBox="0 0 2400.000000 2400.000000"
 preserveAspectRatio="xMidYMid meet">
<metadata>
Created by potrace 1.11, written by Peter Selinger 2001-2013
</metadata>
<g transform="translate(0.000000,2400.000000) scale(0.100000,-0.100000)"
fill="#000000" stroke="none">
<path d="M11588 23995 c-2 -1 -73 -6 -158 -9 -85 -3 -177 -8 -205 -11 -27 -2
-88 -7 -135 -10 -47 -3 -105 -7 -130 -10 -25 -2 -76 -7 -115 -11 -152 -13
-155 -14 -280 -29 -111 -14 -413 -56 -435 -60 -14 -3 -54 -10 -90 -15 -36 -5
-78 -12 -95 -15 -45 -8 -397 -76 -420 -81 -342 -72 -665 -155 -1000 -255 -285
-86 -865 -291 -1029 -363 -17 -8 -82 -35 -143 -60 -101 -42 -226 -97 -378
-166 -27 -12 -162 -78 -300 -146 -939 -461 -1845 -1072 -2644 -1783 -336 -299
-776 -738 -1011 -1011 -12 -14 -47 -54 -78 -89 -417 -471 -899 -1137 -1247
-1721 -139 -234 -157 -265 -204 -352 -221 -410 -283 -535 -483 -978 -31 -68
-178 -421 -178 -427 0 -3 -7 -19 -15 -36 -61 -131 -354 -1012 -379 -1137 -1
-8 -8 -35 -15 -60 -7 -25 -14 -52 -16 -60 -2 -8 -10 -40 -19 -71 -9 -31 -18
-65 -21 -75 -2 -11 -18 -77 -35 -149 -18 -71 -34 -139 -36 -150 -2 -11 -6 -31
-10 -45 -3 -14 -7 -38 -10 -55 -3 -16 -12 -57 -19 -90 -8 -33 -22 -98 -30
-145 -9 -47 -20 -105 -25 -130 -8 -37 -52 -292 -65 -380 -10 -64 -36 -260 -41
-305 -3 -27 -7 -61 -9 -75 -3 -14 -7 -54 -10 -90 -4 -36 -8 -76 -10 -89 -2
-13 -7 -58 -11 -100 -3 -42 -8 -92 -10 -111 -1 -19 -6 -75 -9 -125 -4 -49 -8
-115 -10 -145 -27 -366 -27 -1166 0 -1540 2 -30 6 -93 10 -140 3 -47 8 -110
10 -140 12 -134 16 -167 20 -200 2 -19 7 -62 10 -95 6 -58 11 -102 20 -175 2
-19 14 -100 25 -180 12 -80 23 -161 26 -180 2 -19 7 -48 11 -65 3 -16 7 -39 9
-50 1 -11 9 -59 18 -107 9 -49 23 -125 31 -170 8 -46 29 -146 46 -223 16 -77
33 -153 36 -170 3 -16 27 -118 55 -225 27 -107 51 -203 53 -213 2 -10 7 -27
10 -37 3 -10 8 -27 10 -37 22 -107 232 -769 290 -913 7 -19 28 -73 45 -120 17
-47 35 -94 39 -105 5 -11 19 -47 32 -80 12 -33 26 -64 31 -70 4 -5 8 -14 8
-21 0 -12 97 -245 151 -362 16 -35 29 -65 29 -67 0 -15 287 -600 358 -730 111
-204 131 -239 227 -405 17 -30 58 -98 90 -150 32 -52 67 -111 78 -130 96 -164
397 -604 586 -855 89 -119 365 -470 381 -485 3 -3 41 -48 85 -100 44 -52 85
-100 90 -106 6 -6 39 -44 75 -84 324 -365 830 -865 1129 -1115 19 -16 54 -46
76 -65 53 -47 199 -167 255 -210 25 -19 50 -40 55 -46 15 -17 401 -307 542
-407 145 -102 491 -332 616 -408 49 -30 101 -61 115 -70 49 -31 206 -122 262
-152 30 -16 60 -33 65 -37 11 -8 104 -60 230 -127 266 -142 701 -350 939 -448
49 -20 96 -41 105 -45 64 -34 576 -224 816 -303 179 -59 462 -146 490 -151 5
-1 35 -10 65 -18 83 -25 351 -93 480 -123 63 -15 124 -29 135 -31 11 -3 29 -7
40 -9 11 -2 88 -17 170 -34 83 -18 165 -34 184 -37 40 -7 67 -12 101 -19 14
-3 39 -7 55 -9 17 -3 84 -13 150 -25 66 -11 138 -22 160 -25 22 -3 74 -11 115
-16 41 -6 95 -13 120 -15 51 -6 115 -14 151 -20 13 -2 56 -6 94 -9 65 -6 89
-8 215 -21 25 -2 90 -7 145 -10 55 -3 118 -8 140 -10 117 -13 375 -19 750 -20
423 0 669 8 925 29 41 4 102 9 135 11 106 9 179 16 215 20 19 2 60 7 90 10
105 12 118 14 390 50 38 5 106 16 130 20 8 2 51 8 95 15 44 7 89 14 100 16 11
3 45 9 75 14 30 6 64 12 75 14 11 2 61 11 110 21 50 9 127 25 172 35 44 11 96
22 113 25 26 5 153 35 345 81 23 6 26 7 80 22 22 6 51 13 65 16 14 3 104 28
200 56 96 29 189 55 205 60 130 34 719 239 855 297 8 3 17 7 20 8 11 4 53 21
210 86 167 68 301 127 465 202 132 60 623 309 672 340 24 15 45 27 48 27 3 0
89 48 191 107 101 60 197 114 212 122 15 8 29 18 30 23 2 4 8 8 13 8 19 0 480
300 689 448 130 92 410 299 420 311 3 4 32 26 65 50 33 25 62 47 65 50 3 4 39
33 80 66 41 33 84 67 95 76 37 31 190 161 220 188 17 14 51 44 75 65 292 254
665 622 950 936 47 51 90 98 95 104 30 33 204 237 290 341 55 66 105 126 112
133 7 7 13 16 13 20 0 4 13 21 29 39 50 57 275 355 371 492 159 227 344 505
435 657 236 390 352 600 534 969 351 709 602 1368 817 2145 39 139 74 274 80
305 2 11 8 38 14 60 57 227 151 705 195 1000 15 101 34 245 40 300 4 33 8 67
11 75 2 8 6 44 9 80 3 36 7 81 10 100 10 78 17 150 30 330 3 47 8 112 10 145
27 365 27 1177 0 1555 -2 30 -7 91 -10 135 -10 142 -16 210 -30 335 -3 30 -8
71 -9 90 -2 19 -6 55 -10 80 -3 25 -8 68 -11 95 -7 54 -40 291 -57 395 -5 36
-11 74 -13 85 -6 40 -26 151 -40 222 -8 39 -17 89 -21 110 -3 21 -9 54 -14 73
-9 34 -37 171 -46 220 -14 73 -121 493 -173 677 -54 190 -179 586 -201 638 -4
11 -22 61 -40 110 -18 50 -46 126 -62 170 -17 44 -41 108 -54 142 -12 34 -29
77 -37 95 -8 18 -38 92 -67 163 -30 72 -66 157 -81 190 -15 33 -59 132 -99
220 -98 216 -358 727 -420 825 -6 8 -19 33 -31 55 -12 22 -56 99 -99 170 -301
506 -539 854 -930 1360 -341 442 -889 1028 -1355 1450 -166 150 -185 167 -320
280 -71 60 -132 112 -135 115 -3 3 -25 21 -50 40 -25 19 -47 37 -50 40 -12 13
-197 156 -345 267 -360 268 -724 509 -1165 768 -30 18 -118 67 -195 109 -77
42 -151 84 -165 92 -76 45 -634 315 -805 389 -110 48 -213 93 -230 100 -26 12
-292 116 -460 180 -261 101 -805 269 -1165 361 -188 49 -568 135 -655 149 -16
3 -41 8 -55 10 -80 16 -114 22 -335 59 -82 13 -184 29 -225 35 -41 6 -95 13
-120 17 -79 11 -94 12 -160 19 -36 3 -72 8 -80 10 -8 2 -49 7 -90 10 -41 4
-86 8 -100 10 -14 2 -65 7 -115 10 -49 4 -106 8 -125 10 -19 2 -89 6 -155 10
-66 4 -140 9 -165 11 -54 5 -1007 14 -1012 9z"/>
</g>
</svg>
